P3
10 # image width
10 # image height
255
128 179 230
128 179 230
128 179 230
128 179 230
128 179 230
128 179 230
128 179 230
128 179 230
128 179 230
128 179 230
128 179 230
128 179 230
128 179 230
0 232 0
0 0 233
230 0 0
221 0 0
128 179 230
128 179 230
128 179 230
6 255 6
9 255 9
11 11 255
12 12 255
11 11 255
10 10 255
251 7 7
243 4 4
235 2 2
1 226 1
17 255 17
22 255 22
25 25 255
25 25 255
24 24 255
20 20 255
249 16 16
240 11 11
231 7 7
222 4 4
12 238 12
14 14 241
16 16 241
16 16 240
15 15 236
13 13 231
225 10 10
218 7 7
210 4 4
203 2 2
3 204 3
3 3 205
4 4 205
4 4 203
4 4 200
3 3 197
193 2 2
188 2 2
182 1 1
176 1 1
0 168 0
0 0 169
0 0 168
0 0 167
0 0 165
0 0 162
158 0 0
153 0 0
147 0 0
141 0 0
0 118 0
0 120 0
0 0 121
0 0 120
0 0 118
0 0 115
111 0 0
105 0 0
98 0 0
89 0 0
128 179 230
128 179 230
128 179 230
0 0 51
0 0 51
0 0 51
51 0 0
128 179 230
128 179 230
128 179 230
128 179 230
128 179 230
128 179 230
128 179 230
128 179 230
128 179 230
128 179 230
128 179 230
128 179 230
128 179 230
